<!DOCTYPE svg PUBLIC "-//W3C//DTD SVG 20010904//EN" "http://www.w3.org/TR/2001/REC-SVG-20010904/DTD/svg10.dtd">
<svg version="1.0" xmlns="http://www.w3.org/2000/svg" width="268px" height="50px" viewBox="0 0 2680 500" preserveAspectRatio="xMidYMid meet">
<g id="layer1" fill="#fa8202" stroke="none">
 <path d="M2333 474 c-18 -8 -33 -19 -33 -25 0 -13 68 -92 86 -99 9 -4 9 -15 -3 -48 -8 -24 -12 -51 -8 -60 5 -15 4 -15 -11 0 -12 12 -14 21 -7 30 5 7 10 22 10 34 1 17 -3 20 -22 16 -41 -7 -47 -24 -36 -87 16 -84 48 -138 89 -146 18 -4 43 -16 56 -28 31 -30 51 -26 69 12 13 27 14 39 2 82 l-13 50 41 43 c34 34 40 46 31 59 -14 23 -39 31 -31 10 4 -10 2 -14 -6 -11 -7 2 -17 -6 -22 -18 -6 -13 -18 -24 -29 -26 -15 -3 -11 6 18 43 27 36 36 58 36 86 0 37 2 39 30 39 19 0 30 5 30 14 0 25 -31 47 -62 44 -25 -2 -32 -10 -44 -43 -7 -22 -14 -50 -14 -61 0 -12 -7 -27 -15 -34 -13 -10 -15 -9 -15 8 0 14 -16 32 -47 53 -43 30 -45 33 -25 40 29 11 29 39 0 38 -13 0 -38 -7 -55 -15z"/>
 <path d="M670 385 c0 -8 7 -15 15 -15 8 0 15 -2 15 -5 0 -17 -34 -141 -40 -148 -14 -16 -21 49 -11 94 6 24 11 47 11 52 0 12 -48 8 -53 -5 -4 -10 -6 -10 -6 0 -1 7 -15 12 -36 12 l-35 0 0 -115 0 -115 35 0 c30 0 35 3 35 23 0 21 3 22 60 19 58 -4 60 -3 60 22 0 13 5 28 10 31 6 4 10 -7 10 -24 0 -28 3 -31 30 -31 23 0 30 -4 30 -20 0 -18 7 -20 60 -20 48 0 61 4 70 19 13 25 13 68 0 76 -8 5 -8 11 0 20 6 7 10 35 8 62 l-3 48 -67 3 -68 3 -1 -78 -1 -78 -12 80 c-6 44 -15 86 -19 93 -12 18 -97 16 -97 -3z m207 -97 c-3 -7 -5 -2 -5 12 0 14 2 19 5 13 2 -7 2 -19 0 -25z"/>
 <path d="M1039 379 c-10 -20 -9 -21 30 -17 23 2 41 0 41 -4 0 -5 -13 -8 -30 -8 -36 0 -50 -23 -50 -85 0 -74 11 -85 80 -85 l60 0 0 98 c0 63 -4 102 -12 110 -7 7 -33 12 -60 12 -38 0 -50 -4 -59 -21z m68 -141 c-2 -18 -4 -6 -4 27 0 33 2 48 4 33 2 -15 2 -42 0 -60z"/>
 <path d="M20 255 l0 -115 55 0 c52 0 55 1 55 25 0 18 -5 25 -20 25 -13 0 -20 7 -20 20 0 13 7 20 20 20 15 0 20 7 20 25 0 18 -5 25 -20 25 -17 0 -20 7 -20 45 0 45 0 45 -35 45 l-35 0 0 -115z"/>
 <path d="M140 275 l0 -95 50 1 c36 1 50 6 50 16 0 12 3 12 16 -1 24 -25 90 -21 108 6 l16 22 16 -22 c11 -17 25 -22 58 -22 23 0 47 5 54 12 7 7 12 44 12 95 l0 83 -59 0 c-40 0 -62 -5 -71 -15 -12 -14 -15 -14 -30 0 -22 20 -84 19 -104 -1 -11 -10 -16 -34 -16 -70 0 -30 -4 -54 -8 -54 -21 0 -32 29 -32 82 0 58 0 58 -30 58 l-30 0 0 -95z m213 15 c18 -1 43 -7 57 -15 l25 -14 -27 -1 c-16 0 -28 5 -28 10 0 6 -16 10 -35 10 -32 0 -35 2 -34 28 2 23 2 24 6 5 3 -18 11 -23 36 -23z"/>
 <path d="M960 275 l0 -95 30 0 30 0 0 95 0 95 -30 0 -30 0 0 -95z"/>
 <path d="M1190 255 l0 -115 55 0 c52 0 55 1 55 25 0 18 -5 25 -20 25 -13 0 -20 7 -20 20 0 11 7 20 15 20 9 0 15 9 15 25 0 16 -6 25 -15 25 -11 0 -15 12 -15 45 0 45 0 45 -35 45 l-35 0 0 -115z"/>
 <path d="M1310 351 c-16 -31 -13 -137 6 -155 25 -25 90 -21 111 8 l18 23 10 -21 c12 -25 72 -34 105 -16 18 10 22 8 27 -9 4 -16 13 -21 39 -21 24 0 34 5 34 15 0 8 5 15 10 15 6 0 10 7 10 15 0 8 -4 15 -10 15 -6 0 -10 27 -10 60 0 33 4 60 10 60 6 0 10 7 10 15 0 11 -11 15 -40 15 -45 0 -47 -5 -53 -100 -3 -54 -3 -54 -5 11 -2 79 -13 91 -74 87 -31 -2 -45 -8 -53 -24 l-10 -21 -18 23 c-24 32 -101 35 -117 5z m207 -108 c-2 -21 -4 -6 -4 32 0 39 2 55 4 38 2 -18 2 -50 0 -70z"/>
 <path d="M1690 345 c0 -20 5 -25 25 -25 24 0 25 -3 25 -54 0 -69 17 -88 74 -84 31 2 43 8 51 26 12 28 18 28 30 0 12 -26 71 -36 105 -18 17 9 20 20 20 84 0 87 -9 99 -72 94 -33 -2 -45 -8 -53 -25 -5 -13 -12 -23 -15 -23 -3 0 -10 10 -15 23 -13 29 -84 37 -109 12 -14 -15 -16 -15 -16 -1 0 10 -9 16 -25 16 -20 0 -25 -5 -25 -25z m267 -102 c-2 -21 -4 -6 -4 32 0 39 2 55 4 38 2 -18 2 -50 0 -70z m-106 47 c22 0 29 -5 29 -20 0 -16 -7 -20 -35 -20 -35 0 -35 0 -34 43 1 23 4 32 6 20 3 -18 11 -23 34 -23z"/>
 <path d="M2030 275 l0 -96 103 3 102 3 3 93 3 92 -30 0 -30 0 -4 -82 -3 -83 -2 83 -2 82 -30 0 c-29 0 -29 0 -33 -67 l-3 -68 -2 68 -2 67 -35 0 -35 0 0 -95z"/>
 <path d="M960 155 c0 -10 10 -15 30 -15 20 0 30 5 30 15 0 10 -10 15 -30 15 -20 0 -30 -5 -30 -15z"/>
 </g>

</svg>