<!DOCTYPE svg PUBLIC "-//W3C//DTD SVG 20010904//EN" "http://www.w3.org/TR/2001/REC-SVG-20010904/DTD/svg10.dtd">
<svg version="1.0" xmlns="http://www.w3.org/2000/svg" width="900px" height="209px" viewBox="0 0 9000 2090" preserveAspectRatio="xMidYMid meet">
<g id="layer1" fill="#007ee6" stroke="none">
 <path d="M7773 1622 l-262 -157 0 -62 c-1 -35 1 -63 5 -63 3 0 41 23 84 51 l79 50 171 -143 c94 -79 180 -147 190 -152 14 -6 52 20 192 135 95 78 178 146 184 150 6 5 43 -13 88 -41 42 -28 79 -50 82 -50 2 0 4 28 4 63 l0 62 -262 155 c-144 85 -269 156 -277 157 -9 1 -134 -69 -278 -155z"/>
 <path d="M7415 1218 c-143 -93 -261 -174 -263 -181 -1 -7 77 -75 173 -151 96 -77 175 -142 174 -145 0 -3 -79 -68 -175 -144 -97 -76 -174 -143 -172 -149 4 -10 513 -348 524 -348 3 0 86 67 186 150 100 82 184 150 188 150 3 0 88 -68 187 -150 100 -83 184 -150 186 -150 12 0 521 338 525 348 2 6 -75 73 -172 149 -96 76 -175 141 -175 144 -1 3 78 68 174 145 96 76 175 144 175 149 0 6 -66 54 -147 106 -82 53 -200 130 -265 172 l-116 76 -186 -155 -186 -155 -173 143 c-94 79 -179 148 -187 154 -12 9 -66 -22 -275 -158z m900 -315 c201 -123 253 -159 243 -169 -7 -6 -124 -80 -260 -163 l-248 -152 -263 162 -264 162 111 68 c61 37 176 108 256 157 80 50 151 91 157 91 7 1 128 -70 268 -156z"/>
 </g>
<g id="layer2" fill="#e9d8d8" stroke="none">
 <path d="M150 1015 l0 -775 550 0 550 0 0 75 0 75 75 0 75 0 0 315 0 315 -75 0 -75 0 0 75 0 75 -390 0 -390 0 0 310 0 310 -160 0 -160 0 0 -775z m930 -310 l0 -305 -305 0 -305 0 0 305 0 305 305 0 305 0 0 -305z"/>
 <path d="M1550 1245 l0 -545 160 0 160 0 0 545 0 545 -160 0 -160 0 0 -545z"/>
 <path d="M2330 1715 l0 -75 -80 0 -80 0 0 -160 0 -160 160 0 160 0 0 155 0 155 230 0 230 0 0 -230 0 -230 -155 0 -155 0 0 -75 0 -75 -155 0 -155 0 0 -80 0 -80 -80 0 -80 0 0 -235 0 -235 80 0 80 0 0 -75 0 -75 390 0 390 0 0 75 0 75 80 0 80 0 0 160 0 160 -160 0 -160 0 0 -155 0 -155 -230 0 -230 0 0 230 0 230 155 0 155 0 0 75 0 75 155 0 155 0 0 80 0 80 80 0 80 0 0 235 0 235 -80 0 -80 0 0 75 0 75 -390 0 -390 0 0 -75z"/>
 <path d="M3730 1715 l0 -75 -80 0 -80 0 0 -160 0 -160 80 0 80 0 0 -75 0 -75 75 0 75 0 0 -75 0 -75 -155 0 -155 0 0 -80 0 -80 80 0 80 0 0 -80 0 -80 315 0 315 0 0 80 0 80 75 0 75 0 0 465 0 465 -390 0 -390 0 0 -75z m460 -315 l0 -230 -70 0 -70 0 0 80 0 80 -80 0 -80 0 0 150 0 150 150 0 150 0 0 -230z m0 -465 l0 -75 -150 0 -150 0 0 75 0 75 150 0 150 0 0 -75z"/>
 <path d="M5120 1635 l0 -155 -75 0 -75 0 0 -75 0 -75 -80 0 -80 0 0 -155 0 -155 -75 0 -75 0 0 -160 0 -160 155 0 155 0 0 155 0 155 80 0 80 0 0 155 0 155 150 0 150 0 0 -155 0 -155 80 0 80 0 0 -155 0 -155 160 0 160 0 0 160 0 160 -80 0 -80 0 0 155 0 155 -75 0 -75 0 0 75 0 75 -80 0 -80 0 0 155 0 155 -160 0 -160 0 0 -155z"/>
 <path d="M6210 1715 l0 -75 -80 0 -80 0 0 -390 0 -390 80 0 80 0 0 -80 0 -80 315 0 315 0 0 80 0 80 75 0 75 0 0 155 0 155 -310 0 -310 0 0 230 0 230 150 0 150 0 0 -75 0 -75 160 0 160 0 0 80 0 80 -75 0 -75 0 0 75 0 75 -315 0 -315 0 0 -75z m460 -780 l0 -75 -150 0 -150 0 0 75 0 75 150 0 150 0 0 -75z"/>
 <path d="M1550 395 l0 -155 160 0 160 0 0 155 0 155 -160 0 -160 0 0 -155z"/>
 </g>

</svg>