<!DOCTYPE svg PUBLIC "-//W3C//DTD SVG 20010904//EN" "http://www.w3.org/TR/2001/REC-SVG-20010904/DTD/svg10.dtd">
<svg version="1.0" xmlns="http://www.w3.org/2000/svg" width="851px" height="197px" viewBox="0 0 8510 1970" preserveAspectRatio="xMidYMid meet">
<g id="layer1" fill="#007ee6" stroke="none">
 <path d="M132 948 l3 -743 520 0 520 0 -517 2 -518 3 0 735 0 735 163 3 162 3 -168 2 -167 2 2 -742z"/>
 <path d="M1523 1683 c48 -2 125 -2 170 0 45 1 6 3 -88 3 -93 0 -130 -2 -82 -3z"/>
 <path d="M2368 1683 c105 -2 279 -2 385 0 105 1 19 2 -193 2 -212 0 -298 -1 -192 -2z"/>
 <path d="M3698 1683 c106 -2 277 -2 380 0 103 1 16 2 -193 2 -209 0 -293 -1 -187 -2z"/>
 <path d="M4908 1683 c45 -2 119 -2 165 0 45 1 8 3 -83 3 -91 0 -128 -2 -82 -3z"/>
 <path d="M6143 1683 l307 -3 0 -65 0 -64 68 -3 67 -3 0 -80 0 -80 -95 -6 -95 -5 103 -2 103 -2 -3 93 -3 92 -67 3 -68 3 0 64 0 65 -312 -2 -313 -3 308 -2z"/>
 <path d="M7555 1670 c-16 -12 -50 -32 -75 -46 -76 -43 -247 -145 -301 -181 -19 -12 -39 -23 -45 -23 -5 -1 -19 -9 -31 -19 -20 -16 -23 -29 -23 -85 0 -81 6 -82 100 -21 l68 46 25 -23 c14 -13 40 -35 59 -49 18 -15 65 -53 103 -85 39 -33 79 -66 89 -74 10 -8 27 -23 38 -32 10 -10 25 -18 34 -18 9 0 92 63 186 140 l169 141 70 -46 c38 -26 74 -45 81 -43 13 5 12 127 -2 143 -5 5 -26 19 -47 30 -21 11 -40 23 -43 26 -3 3 -25 17 -48 30 -63 35 -92 51 -137 80 -22 14 -47 28 -55 32 -8 4 -44 25 -79 47 -81 51 -99 55 -136 30z"/>
 <path d="M7155 1264 c-106 -72 -102 -69 -165 -108 -30 -19 -62 -40 -71 -48 -8 -7 -31 -22 -50 -32 -19 -11 -36 -23 -39 -26 -3 -4 -20 -15 -37 -24 -18 -9 -33 -21 -33 -26 0 -6 -7 -10 -15 -10 -8 0 -15 -9 -15 -20 0 -11 5 -20 11 -20 6 0 41 -25 77 -56 71 -59 105 -87 148 -119 15 -11 42 -33 61 -50 l33 -30 -81 -65 c-44 -36 -92 -74 -106 -85 -14 -11 -36 -30 -50 -43 -13 -12 -26 -22 -29 -22 -14 0 -64 -46 -64 -59 1 -13 86 -75 125 -90 5 -2 12 -7 15 -10 3 -3 30 -22 60 -42 30 -20 90 -59 133 -87 43 -29 80 -52 84 -52 3 0 21 -11 39 -25 55 -42 74 -35 201 73 63 53 137 114 164 136 l49 39 42 -38 c24 -20 58 -49 76 -64 18 -14 40 -33 50 -41 107 -91 163 -130 184 -130 15 0 83 38 169 95 78 52 144 95 147 95 2 0 25 15 51 34 25 18 51 35 56 37 6 2 27 15 48 28 48 30 49 60 5 86 -18 10 -58 40 -89 67 -31 26 -59 48 -62 48 -4 0 -19 12 -34 26 -44 40 -56 50 -85 69 l-28 17 28 23 c34 30 160 132 202 165 17 14 44 35 58 47 15 13 30 23 35 23 12 0 8 30 -5 44 -7 7 -29 21 -48 32 -19 10 -38 24 -42 30 -4 6 -21 17 -38 24 -16 7 -30 15 -30 19 0 4 -17 15 -37 26 -21 11 -47 28 -57 38 -11 9 -23 17 -28 17 -4 0 -26 12 -47 28 -21 15 -47 33 -57 39 -11 7 -39 26 -64 43 -25 16 -48 30 -51 30 -3 0 -18 -10 -32 -22 -14 -13 -40 -34 -58 -48 -18 -14 -62 -50 -98 -81 -36 -31 -77 -64 -90 -75 -14 -10 -35 -30 -48 -43 l-23 -24 -33 31 c-18 18 -36 32 -39 32 -4 0 -19 12 -35 28 -50 48 -241 202 -250 201 -4 0 -44 -25 -88 -55z m488 -304 c25 -16 48 -30 51 -30 4 0 12 -5 19 -10 21 -19 121 -80 139 -86 10 -3 18 -9 18 -13 0 -4 18 -16 40 -26 22 -10 40 -21 40 -25 0 -4 18 -15 40 -25 22 -10 46 -25 55 -35 14 -16 10 -20 -47 -55 -35 -21 -80 -48 -100 -61 -85 -54 -115 -73 -161 -100 -26 -16 -67 -41 -90 -56 -47 -31 -61 -29 -120 13 -22 16 -46 29 -54 29 -7 0 -13 5 -13 10 0 6 -11 15 -24 20 -14 5 -44 23 -67 40 -23 16 -46 30 -51 30 -5 0 -14 5 -21 10 -22 19 -88 60 -129 81 l-40 21 21 19 c11 10 23 19 27 19 3 0 26 14 51 30 24 17 48 30 52 30 5 0 19 9 32 19 14 10 39 27 56 37 85 50 180 110 202 126 13 10 25 18 27 18 2 0 23 -13 47 -30z"/>
 <path d="M6493 1103 l97 -4 0 -149 0 -149 -67 -3 -68 -3 -3 -67 c-3 -64 -4 -67 -30 -71 -25 -4 -24 -4 6 -6 l32 -1 0 70 0 70 70 0 70 0 0 160 0 160 -102 -2 -103 -2 98 -3z"/>
 <path d="M1528 203 c46 -2 118 -2 160 0 42 1 5 3 -83 3 -88 0 -123 -2 -77 -3z"/>
 <path d="M2368 203 c106 -2 277 -2 380 0 103 1 16 2 -193 2 -209 0 -293 -1 -187 -2z"/>
 </g>
<g id="layer2" fill="#000000" stroke="none">
 <path d="M3500 1623 l0 -63 -63 0 c-36 0 -68 -5 -75 -12 -17 -17 -17 -299 0 -316 7 -7 39 -12 75 -12 l63 0 0 -65 0 -65 75 0 75 0 0 -60 0 -59 -147 -3 -148 -3 -3 -65 c-5 -107 -3 -110 78 -110 l69 0 3 -67 3 -68 308 -3 307 -2 0 70 0 70 70 0 70 0 0 445 0 445 -380 2 -380 3 0 -62z m440 -308 l0 -205 -60 0 -60 0 0 75 0 75 -65 0 -65 0 0 130 0 130 125 0 125 0 0 -205z m0 -435 l0 -60 -125 0 -125 0 0 60 0 60 125 0 125 0 0 -60z"/>
 <path d="M140 945 l0 -735 523 2 522 3 3 67 3 67 72 3 72 3 0 305 0 305 -72 3 -72 3 -3 67 -3 67 -362 3 -363 2 0 285 0 285 -160 0 -160 0 0 -735z m880 -285 l0 -280 -280 0 -280 0 0 280 0 280 280 0 280 0 0 -280z"/>
 <path d="M1440 1165 l0 -515 165 0 165 0 0 515 0 515 -165 0 -165 0 0 -515z"/>
 <path d="M2180 1620 l0 -60 -59 0 c-96 0 -91 10 -91 -170 0 -135 2 -159 16 -164 9 -3 76 -6 149 -6 73 0 140 3 149 6 14 5 16 28 16 150 l0 144 205 0 205 0 0 -205 0 -205 -145 0 -145 0 0 -70 0 -70 -150 0 -150 0 0 -75 0 -75 -75 0 -75 0 0 -235 0 -235 75 0 75 0 0 -70 0 -70 380 0 380 0 0 70 0 69 73 3 72 3 3 158 3 157 -161 0 -160 0 0 -145 0 -145 -205 0 -205 0 0 205 0 205 145 0 145 0 0 75 0 75 145 0 145 0 0 75 0 75 75 0 75 0 -2 233 -3 232 -72 3 -73 3 0 59 0 60 -380 0 -380 0 0 -60z"/>
 <path d="M4830 1545 l0 -134 -72 -3 -73 -3 -3 -72 -3 -72 -72 -3 -72 -3 -3 -142 -3 -143 -69 0 -70 0 0 -160 0 -160 160 0 160 0 0 145 0 145 75 0 75 0 0 140 0 140 130 0 130 0 0 -140 0 -140 75 0 75 0 0 -145 0 -145 160 0 160 0 0 160 0 160 -75 0 -74 0 -3 143 -3 142 -67 3 -67 3 -3 72 -3 72 -72 3 -73 3 0 134 0 135 -160 0 -160 0 0 -135z"/>
 <path d="M5840 1620 l0 -60 -64 0 c-42 0 -67 -5 -75 -14 -8 -9 -11 -118 -9 -382 l3 -369 73 -3 72 -3 0 -69 0 -70 268 0 c147 0 284 3 304 6 l37 6 3 67 3 66 68 3 67 3 0 148 0 148 -142 6 c-79 4 -205 7 -280 7 l-138 0 0 205 0 205 125 0 125 0 0 -70 c0 -48 4 -72 13 -76 7 -2 76 -1 152 3 l140 8 0 80 0 80 -67 3 -68 3 0 64 0 65 -305 0 -305 0 0 -60z m440 -740 l0 -60 -125 0 -125 0 0 60 0 60 125 0 125 0 0 -60z"/>
 <path d="M1440 370 l0 -160 165 0 165 0 0 160 0 160 -165 0 -165 0 0 -160z"/>
 </g>

</svg>